PathFileType        4      (X/Y/Z)      C:\Users\pc\Desktop\IMUTRC\Sujet_05\Sujet_05_velo_60.trc         
DataRate	CameraRate	NumFrames	NumMarkers	Units	OrigDataRate	OrigDataStartFrame	OrigNumFrames
60.0	60.0	4	64	mm	60.0	1	966
Frame#	Time	pHipOrigin			pRightASI			pLeftASI			pRightCSI			pLeftCSI			pRightIschialTub			pLeftIschialTub			pSacrum			pL5SpinalProcess			pL3SpinalProcess			pT12SpinalProcess			pIJ			pT4SpinalProcess			pT8SpinalProcess			pPX			pC7SpinalProcess			pTopOfHead			pRightAuricularis			pLeftAuricularis			pBackOfHead			pRightAcromion			pLeftAcromion			pRightArmLatEpicondyle			pRightArmMedEpicondyle			pLeftArmLatEpicondyle			pLeftArmMedEpicondyle			pRightUlnarStyloid			pRightRadialStyloid			pRightOlecranon			pLeftUlnarStyloid			pLeftRadialStyloid			pLeftOlecranon			pRightTopOfHand			pRightPinky			pRightBallHand			pLeftTopOfHand			pLeftPinky			pLeftBallHand			pRightGreaterTrochanter			pRightKneeLatEpicondyle			pRightKneeMedEpicondyle			pRightPatella			pLeftGreaterTrochanter			pLeftKneeLatEpicondyle			pLeftKneeMedEpicondyle			pLeftPatella			pRightTibialTub			pRightLatMalleolus			pRightMedMalleolus			pLeftTibialTub			pLeftLatMalleolus			pLeftMedMalleolus			pRightHeelFoot			pRightFirstMetatarsal			pRightFifthMetatarsal			pRightPivotFoot			pRightHeelCenter			pRightToe			pLeftHeelFoot			pLeftFirstMetatarsal			pLeftFifthMetatarsal			pLeftPivotFoot			pLeftHeelCenter			pLeftToe			
		X1	Y1	Z1	X2	Y2	Z2	X3	Y3	Z3	X4	Y4	Z4	X5	Y5	Z5	X6	Y6	Z6	X7	Y7	Z7	X8	Y8	Z8	X9	Y9	Z9	X10	Y10	Z10	X11	Y11	Z11	X12	Y12	Z12	X13	Y13	Z13	X14	Y14	Z14	X15	Y15	Z15	X16	Y16	Z16	X17	Y17	Z17	X18	Y18	Z18	X19	Y19	Z19	X20	Y20	Z20	X21	Y21	Z21	X22	Y22	Z22	X23	Y23	Z23	X24	Y24	Z24	X25	Y25	Z25	X26	Y26	Z26	X27	Y27	Z27	X28	Y28	Z28	X29	Y29	Z29	X30	Y30	Z30	X31	Y31	Z31	X32	Y32	Z32	X33	Y33	Z33	X34	Y34	Z34	X35	Y35	Z35	X36	Y36	Z36	X37	Y37	Z37	X38	Y38	Z38	X39	Y39	Z39	X40	Y40	Z40	X41	Y41	Z41	X42	Y42	Z42	X43	Y43	Z43	X44	Y44	Z44	X45	Y45	Z45	X46	Y46	Z46	X47	Y47	Z47	X48	Y48	Z48	X49	Y49	Z49	X50	Y50	Z50	X51	Y51	Z51	X52	Y52	Z52	X53	Y53	Z53	X54	Y54	Z54	X55	Y55	Z55	X56	Y56	Z56	X57	Y57	Z57	X58	Y58	Z58	X59	Y59	Z59	X60	Y60	Z60	X61	Y61	Z61	X62	Y62	Z62	X63	Y63	Z63	X64	Y64	Z64	
1	0.0	0.0	1249.96063	7.653801422948546E-14	70.41117000000001	1338.73993	123.38189000000008	49.352759999999996	1349.59383	-125.42279999999991	25.696830000000006	1400.80195	108.81726000000009	8.163609999999995	1409.80048	-98.14890999999992	-46.10587	1193.37194	53.62010000000007	-54.91886	1197.82482	-49.81659999999993	-62.61863	1267.95769	6.1227100000000805	-29.03649	1369.53902	6.586550000000085	28.66542	1475.3877	6.586550000000089	89.79975	1567.41389	5.751640000000091	351.0354	1587.54462	-0.2783099999999243	241.66153	1697.47511	2.5047500000000893	164.75657	1646.73083	4.174580000000091	248.89746	1513.97933	1.8553700000000775	293.70457	1729.75849	2.3192100000000884	578.03953	1740.33408	-19.38857999999993	481.00385	1717.23477	62.062020000000075	466.81029	1728.18143	-83.21319999999993	464.67662	1779.29679	-5.473329999999919	285.35542	1649.1428	199.2664000000001	284.89158	1656.4715	-192.21599999999992	357.62196	1399.87427	184.60900000000007	339.16106	1393.9371	130.61782000000005	382.20557	1422.78805	-190.36063999999993	365.4145	1412.58353	-136.46222999999995	456.88408	1182.88912	186.27883000000006	498.90814	1208.77149	193.42199000000005	325.06027	1389.57698	155.75805000000005	487.40487	1207.8438	-200.75068999999993	528.77955	1235.02493	-207.15170999999995	350.47879	1409.70771	-161.60244999999995	509.48373	1123.23908	351.40648	482.39537	1119.62111	269.5848	486.10611	1162.48008	211.14074000000005	606.33388	1159.97534	-341.48026	547.42598	1150.88404	-279.04717	525.25435	1189.56844	-221.90186999999995	23.09932000000001	1214.70866	147.1305900000001	274.31599	956.4416	113.27014000000004	282.85067	966.18227	43.97219000000004	305.20784	990.11651	83.58428000000005	7.3286999999999916	1230.94312	-151.0268599999999	298.25022	1015.90611	-161.04583999999997	310.86671	1020.63729	-91.93342999999996	325.70965	1051.43638	-130.24674999999996	331.27575	937.51686	76.81219000000004	298.80683	562.08338	74.95682000000001	300.84773	566.90733	15.492310000000018	324.50366	970.35685	-128.29861999999997	50.83704999999999	712.27532	-151.86176999999995	54.547779999999996	709.86335	-92.30449999999996	244.25904	489.81684	45.64202000000002	400.38816	458.73945	-2.9685899999999963	405.02658	455.67809	75.32789	424.32239	452.70951	33.67491	283.03621	484.62181	43.13728000000001	503.17548	436.10397	28.387109999999996	-36.921800000000005	685.92912	-127.74200999999995	67.34982	562.08338	-89.52144999999997	71.33884999999998	565.42304	-167.72515999999996	83.76980999999999	546.7766	-127.55646999999998	-9.276830000000007	658.28415	-127.46369999999996	136.46223	485.64227	-127.46369999999999	
2	0.017	0.0	1249.96063	7.653801422948546E-14	70.22563000000001	1338.18332	123.93850000000009	49.352759999999996	1350.15044	-124.86618999999992	25.418530000000008	1400.24534	109.55941000000009	8.070849999999995	1410.26432	-97.40675999999992	-46.10587	1193.00087	53.34180000000007	-54.73332	1198.01036	-50.09489999999993	-62.61863	1267.86492	6.1227100000000805	-29.12926	1369.44625	7.143160000000085	28.38711	1475.48047	7.143160000000089	89.24314	1567.59943	6.308250000000091	350.38603	1588.28677	-0.8349199999999242	240.82661	1697.93895	2.3192100000000893	164.01443	1647.1019	4.360110000000091	248.52639	1514.44317	1.8553700000000775	292.77689	1730.40787	1.855370000000088	577.01908	1740.79792	-21.52225999999993	480.44724	1717.97691	60.57773000000008	465.41877	1728.73804	-84.69749999999993	463.84171	1779.94616	-6.957629999999919	285.44819	1650.34879	198.98809000000008	283.12898	1656.84258	-192.5870799999999	356.78704	1400.43088	185.07284000000007	338.23337	1394.40094	131.08167000000006	380.72127	1423.06636	-189.98955999999995	364.11574	1413.04737	-135.99838999999994	455.49256	1183.26019	186.83544000000006	497.70215	1208.95702	193.97860000000006	324.13258	1390.13359	156.12912000000006	485.8278	1208.12211	-200.00853999999995	527.29525	1235.21046	-206.40955999999994	349.08727	1410.07879	-161.23137999999994	507.99944	1123.61015	352.05586	481.00385	1119.89942	270.23418	484.71458	1162.75839	211.79012000000006	604.94235	1159.97534	-340.55258	545.94169	1150.88404	-278.11949	523.67729	1189.75398	-221.06695999999994	21.615020000000012	1212.76053	146.6667500000001	260.12243	943.17573	108.72450000000005	268.93542	953.47301	39.61208000000004	292.49858	975.73741	79.40970000000004	8.905759999999992	1231.22143	-150.5630199999999	307.06321	1026.29616	-155.01589999999996	318.75202	1032.14057	-85.81071999999996	333.03835	1063.03242	-124.30957999999994	317.17496	925.17867	73.10145000000004	286.46864	549.55965	79.03863000000001	288.69508	553.17762	19.481350000000017	332.2962	981.76736	-124.21680999999995	58.072979999999994	724.89182	-153.99544999999995	62.15478999999999	720.53171	-94.62370999999996	230.80763	477.84973	48.88892000000001	386.56568	444.73143	0.4638400000000036	390.83302	440.92793	78.66755	410.31437	437.95934	37.01457	269.39926	472.00532	46.47694000000001	488.88916	420.24059	31.819539999999996	-29.593100000000007	697.61793	-129.22629999999995	75.23512	573.95773	-91.37681999999997	78.57478999999998	577.01908	-169.67329999999998	91.37681999999998	558.55818	-129.50459999999998	-1.855370000000008	669.88019	-129.13352999999998	144.162	497.42385	-129.59736999999998	
3	0.033	0.0	1249.96063	7.653801422948546E-14	69.94733000000001	1337.71948	124.40235000000008	49.352759999999996	1350.79982	-124.30957999999991	25.140220000000006	1399.7815	110.30156000000008	8.070849999999995	1410.72817	-96.66460999999991	-46.10587	1192.72256	52.97072000000007	-54.64055	1198.1959	-50.46597999999993	-62.61863	1267.77215	6.1227100000000805	-29.3148	1369.35349	7.699770000000085	28.01604	1475.48047	7.792540000000089	88.68653	1567.6922	6.772090000000091	349.82942	1589.02892	-1.391529999999924	239.9917	1698.40279	2.0409000000000894	163.36505	1647.3802	4.545650000000092	248.06254	1514.99978	1.9481400000000777	291.8492	1731.05725	1.298760000000088	575.99863	1741.35453	-23.65592999999993	479.89063	1718.71906	59.00067000000008	464.02724	1729.29465	-86.08901999999993	463.00679	1780.59554	-8.44191999999992	285.63372	1651.55478	198.70979000000008	281.27361	1657.21365	-192.9581499999999	356.04489	1400.98749	185.44391000000005	337.30569	1394.86478	131.54551000000006	379.23698	1423.25189	-189.61848999999995	362.81698	1413.51122	-135.53454999999994	454.1938	1183.5385	187.39205000000007	496.40339	1209.14256	194.53521000000006	323.29767	1390.78297	156.59296000000006	484.34351	1208.30765	-199.26639999999995	525.71819	1235.396	-205.66740999999993	347.60297	1410.44986	-160.76753999999994	506.60791	1123.98122	352.70523	479.51956	1120.27049	270.79079	483.41583	1163.03669	212.34673000000006	603.45806	1159.88257	-339.6249	544.4574	1150.97681	-277.28457	522.19299	1189.84675	-220.23203999999996	20.13073000000001	1210.90516	146.2029100000001	245.27949	930.74477	104.08608000000004	254.46356	941.41313	35.06643000000004	279.13994	962.10047	75.14236000000004	10.482819999999991	1231.5925	-150.1919399999999	315.50513	1036.96452	-149.07871999999998	326.17349	1043.92214	-79.78076999999996	339.81043	1074.90677	-118.37239999999994	302.9814	912.84048	69.39072000000004	274.13045	537.31423	83.12043000000001	276.63519	539.72621	23.563160000000014	339.99597	993.17786	-120.04222999999996	65.21613999999998	737.69385	-156.12911999999994	69.76179	731.47837	-96.94291999999996	217.26346	465.88261	52.04304000000001	372.65043	430.72341	3.8035000000000037	376.63947	426.17776	82.00721	396.21359	423.20917	40.44700000000001	255.85509	459.48159	49.723830000000014	474.51007	404.28443	35.344739999999994	-22.171630000000007	709.21397	-130.71058999999994	83.02767	585.83208	-93.23217999999996	85.90347999999999	588.70789	-171.52865999999997	98.98381999999998	570.33976	-131.45273999999998	5.658869999999992	681.569	-130.71058999999997	151.76901	509.29819	-131.73103999999998	
4	0.05	0.0	1249.96063	7.653801422948546E-14	69.85456000000002	1337.16287	124.86619000000009	49.44552999999999	1351.4492	-123.84573999999992	25.04745000000001	1399.31766	110.95094000000009	8.070849999999995	1411.19201	-95.92245999999992	-46.10587	1192.44426	52.69242000000007	-54.64055	1198.38143	-50.74427999999993	-62.7114	1267.77215	6.1227100000000805	-29.3148	1369.35349	8.163610000000086	27.8305	1475.48047	8.349150000000089	88.40823	1567.78497	7.328700000000091	349.45834	1589.49276	-1.669829999999924	239.43509	1698.77387	1.9481400000000892	162.90121	1647.56574	4.731190000000091	247.87701	1515.27809	2.040900000000078	291.29259	1731.52109	0.9276800000000881	575.34925	1741.63284	-25.511289999999928	479.61232	1719.1829	57.79468000000008	462.91402	1729.66572	-87.29500999999993	462.45018	1781.05938	-9.74067999999992	285.91203	1652.48246	198.61702000000008	279.97485	1657.39919	-193.2364499999999	355.58105	1401.35856	185.90776000000005	336.74908	1395.23585	132.10212000000007	378.12376	1423.34466	-189.15464999999995	361.8893	1413.78952	-134.97793999999993	453.26612	1183.72404	188.04143000000005	495.56848	1209.23533	195.18459000000004	322.74106	1391.15405	157.05680000000007	483.23029	1208.40041	-198.43147999999994	524.69774	1235.396	-204.83249999999995	346.58252	1410.54263	-160.21092999999993	505.58746	1124.16676	353.44738	478.59187	1120.45603	271.53293	482.48814	1163.12946	213.08888000000005	602.53038	1159.60427	-338.60445	543.43694	1150.88404	-276.26412	521.17254	1189.93951	-219.30435999999995	18.64644000000001	1209.42087	145.92460000000008	230.99317	919.89087	100.83919000000004	240.45554	930.652	31.912310000000044	266.15237	949.94781	71.98823000000004	11.96711999999999	1232.33465	-149.82086999999993	323.66874	1048.56056	-144.25476999999998	333.31665	1056.26033	-74.86404999999995	346.21145	1087.4305	-113.54844999999995	289.34446	901.61551	66.88597000000004	260.95734	526.2748	86.83117000000001	263.55486	527.66633	27.181120000000014	347.78851	1005.33051	-116.42426999999996	74.40020999999999	749.10436	-157.24233999999996	79.1314	741.59012	-98.24166999999996	202.88436	455.30702	54.918860000000016	357.71472	417.82861	6.9576300000000035	361.33269	412.54081	85.16134	380.99958	409.665	43.69389000000001	241.29046	448.34939	52.69242000000001	459.01775	389.34873	38.68439999999999	-12.52373000000001	719.04741	-131.35996999999995	93.88156	596.5932	-94.25262999999995	96.29353999999998	599.37625	-172.54910999999998	109.74494999999999	581.28643	-132.47318999999996	15.492309999999991	691.68075	-131.54550999999998	163.17951	520.7087	-133.02979999999997	
